<?xml version="1.0" encoding="UTF-8" standalone="no"?>
<svg
   viewBox="0 0 756 560"
   preserveAspectRatio="xMidYMid"
   shape-rendering="geometricPrecision"
   width="756"
   height="560"
   version="1.1"
   id="svg22"
   sodipodi:docname="health-dial-almost.svg"
   inkscape:version="1.4.2 (f4327f4, 2025-05-13)"
   xmlns:inkscape="http://www.inkscape.org/namespaces/inkscape"
   xmlns:sodipodi="http://sodipodi.sourceforge.net/DTD/sodipodi-0.dtd"
   xmlns:xlink="http://www.w3.org/1999/xlink"
   xmlns="http://www.w3.org/2000/svg"
   xmlns:svg="http://www.w3.org/2000/svg">
  <defs
     id="defs22">
    <linearGradient
       id="linearGradient23"
       inkscape:collect="always">
      <stop
         style="stop-color:#000000;stop-opacity:0;"
         offset="0"
         id="stop24" />
      <stop
         style="stop-color:#000000;stop-opacity:1;"
         offset="1"
         id="stop23" />
    </linearGradient>
    <radialGradient
       inkscape:collect="always"
       xlink:href="#linearGradient23"
       id="radialGradient24"
       cx="288.93253"
       cy="271.06747"
       fx="288.93253"
       fy="271.06747"
       r="198.92024"
       gradientTransform="matrix(1.1059701,0,0,1.1059701,-39.550366,-19.792169)"
       gradientUnits="userSpaceOnUse" />
    <radialGradient
       inkscape:collect="always"
       xlink:href="#linearGradient23"
       id="radialGradient24-0"
       cx="288.93253"
       cy="271.06747"
       fx="288.93253"
       fy="271.06747"
       r="198.92024"
       gradientTransform="matrix(0.66534173,0,0,0.66534173,379.22823,159.47028)"
       gradientUnits="userSpaceOnUse" />
  </defs>
  <sodipodi:namedview
     id="namedview22"
     pagecolor="#ffffff"
     bordercolor="#000000"
     borderopacity="0.25"
     inkscape:showpageshadow="2"
     inkscape:pageopacity="0.0"
     inkscape:pagecheckerboard="true"
     inkscape:deskcolor="#d1d1d1"
     inkscape:zoom="0.72767857"
     inkscape:cx="120.2454"
     inkscape:cy="183.46012"
     inkscape:window-width="1920"
     inkscape:window-height="1017"
     inkscape:window-x="1912"
     inkscape:window-y="-8"
     inkscape:window-maximized="1"
     inkscape:current-layer="layer1" />
  <path
     style="fill:url(#radialGradient24-0);stroke-width:0.673258"
     id="path23-8"
     sodipodi:type="arc"
     sodipodi:cx="571.46735"
     sodipodi:cy="339.82272"
     sodipodi:rx="132.35001"
     sodipodi:ry="132.35001"
     sodipodi:start="2.3911011"
     sodipodi:end="0.75049158"
     sodipodi:arc-type="arc"
     d="m 474.67268,430.08521 a 132.35001,132.35001 0 0 1 4.30431,-184.93063 132.35001,132.35001 0 0 1 184.98072,0 132.35001,132.35001 0 0 1 4.3043,184.93063"
     sodipodi:open="true" />
  <g
     inkscape:groupmode="layer"
     id="layer1"
     inkscape:label="Layer 1">
    <g
       id="g5-9"
       transform="matrix(0.60694486,0,0,0.60694486,401.71957,170.03586)">
      <path
         d="M 153.8845,410.90019 A 184.39303,181.52421 0 0 1 99.266335,251.37183"
         stroke="#ed0c0c"
         stroke-width="29.9919"
         fill="none"
         stroke-linecap="butt"
         id="path1-4"
         style="stroke-width:45;stroke-dasharray:none;stroke:#975d51;stroke-opacity:1" />
      <path
         d="M 99.253034,251.37249 A 183,183 0 0 1 196.91974,116.94581"
         stroke="#e3940d"
         stroke-width="30"
         fill="none"
         stroke-linecap="butt"
         id="path2-8"
         style="stroke-width:45;stroke-dasharray:none;stroke:#975d51;stroke-opacity:1" />
      <path
         d="m 196.91974,116.94581 a 183,183 0 0 1 166.16052,0"
         stroke="#d8db00"
         stroke-width="30"
         fill="none"
         stroke-linecap="butt"
         id="path3-8"
         style="stroke-width:45;stroke-dasharray:none;stroke:#975d51;stroke-opacity:1" />
      <path
         d="m 363.08026,116.94581 a 183,183 0 0 1 97.66671,134.42668"
         stroke="#a7cd1d"
         stroke-width="30"
         fill="none"
         stroke-linecap="butt"
         id="path4-2"
         style="stroke-width:45;stroke-dasharray:none;stroke:#975d51;stroke-opacity:1" />
      <path
         d="M 460.74697,251.37249 A 183,183 0 0 1 406.54143,412.19783"
         stroke="#25c922"
         stroke-width="30"
         fill="none"
         stroke-linecap="butt"
         id="path5-4"
         style="stroke-width:45;stroke-dasharray:none;stroke:#975d51;stroke-opacity:1" />
    </g>
    <path
       style="fill:url(#radialGradient24);stroke-width:1.11908"
       id="path23"
       sodipodi:type="arc"
       sodipodi:cx="280"
       sodipodi:cy="280"
       sodipodi:rx="220"
       sodipodi:ry="220"
       sodipodi:start="2.3911011"
       sodipodi:end="0.75049158"
       sodipodi:arc-type="arc"
       d="m 119.10218,430.03964 a 220,220 0 0 1 7.15488,-307.40263 220,220 0 0 1 307.48588,1e-5 220,220 0 0 1 7.15487,307.40262"
       sodipodi:open="true" />
    <text
       xml:space="preserve"
       style="font-style:normal;font-variant:normal;font-weight:normal;font-stretch:normal;font-size:96px;font-family:Bahnschrift;-inkscape-font-specification:'Bahnschrift, @wght=700,wdth=90';font-variant-ligatures:normal;font-variant-caps:normal;font-variant-numeric:normal;font-variant-east-asian:normal;font-variation-settings:'wdth' 90, 'wght' 700;text-align:start;writing-mode:lr-tb;direction:ltr;text-anchor:start;fill:#000000;stroke-width:51.3399"
       x="223.60815"
       y="426.69937"
       id="text1"><tspan
         sodipodi:role="line"
         id="tspan1"
         x="223.60815"
         y="426.69937"
         style="font-style:normal;font-variant:normal;font-weight:normal;font-stretch:normal;font-size:96px;font-family:Bahnschrift;-inkscape-font-specification:'Bahnschrift, @wght=700,wdth=90';font-variant-ligatures:normal;font-variant-caps:normal;font-variant-numeric:normal;font-variant-east-asian:normal;font-variation-settings:'wdth' 90, 'wght' 700;stroke-width:51.3399">HP</tspan></text>
  </g>
  <g
     inkscape:groupmode="layer"
     id="layer2"
     inkscape:label="Layer 2">
    <g
       id="g22">
      <g
         id="g5">
        <path
           d="M 153.8845,410.90019 A 184.39303,181.52421 0 0 1 99.266335,251.37183"
           stroke="#ed0c0c"
           stroke-width="29.9919"
           fill="none"
           stroke-linecap="butt"
           id="path1"
           style="stroke-width:45;stroke-dasharray:none" />
        <path
           d="M 99.253034,251.37249 A 183,183 0 0 1 196.91974,116.94581"
           stroke="#e3940d"
           stroke-width="30"
           fill="none"
           stroke-linecap="butt"
           id="path2"
           style="stroke-width:45;stroke-dasharray:none" />
        <path
           d="m 196.91974,116.94581 a 183,183 0 0 1 166.16052,0"
           stroke="#d8db00"
           stroke-width="30"
           fill="none"
           stroke-linecap="butt"
           id="path3"
           style="stroke-width:45;stroke-dasharray:none" />
        <path
           d="m 363.08026,116.94581 a 183,183 0 0 1 97.66671,134.42668"
           stroke="#a7cd1d"
           stroke-width="30"
           fill="none"
           stroke-linecap="butt"
           id="path4"
           style="stroke-width:45;stroke-dasharray:none" />
        <path
           d="M 460.74697,251.37249 A 183,183 0 0 1 406.54143,412.19783"
           stroke="#25c922"
           stroke-width="30"
           fill="none"
           stroke-linecap="butt"
           id="path5"
           style="stroke-width:45;stroke-dasharray:none" />
      </g>
      <path
         d="m 139.21283,327.39417 -11.81522,3.83897 -1.47654,-4.54435 11.81523,-3.839 a 2.389093,2.389093 0 0 1 3.01033,1.53397 2.389093,2.389093 0 0 1 -1.5338,3.01041 z"
         fill="#111111"
         id="path6"
         style="stroke-width:0.955612" />
      <path
         d="m 158.11015,194.21648 -10.05062,-7.30196 2.80828,-3.86586 10.05062,7.30243 a 2.389093,2.389093 0 0 1 0.52883,3.33703 2.389093,2.389093 0 0 1 -3.33711,0.52836 z"
         fill="#111111"
         id="path7"
         style="stroke-width:0.955612" />
      <path
         d="M 276.95974,131.22528 V 118.8021 h 4.77833 v 12.42318 a 2.389093,2.389093 0 0 1 -2.38908,2.38938 2.389093,2.389093 0 0 1 -2.38925,-2.38938 z"
         fill="#111111"
         id="path8"
         style="stroke-width:0.955612" />
      <path
         d="m 397.77936,190.35109 10.05068,-7.30243 2.80848,3.86586 -10.05062,7.30196 a 2.389093,2.389093 0 0 1 -3.33707,-0.52836 2.389093,2.389093 0 0 1 0.52853,-3.33703 z"
         fill="#111111"
         id="path9"
         style="stroke-width:0.955612" />
      <path
         d="m 420.96151,322.84979 11.81523,3.839 -1.47647,4.54435 -11.81524,-3.83897 a 2.389093,2.389093 0 0 1 -1.53393,-3.01041 2.389093,2.389093 0 0 1 3.01041,-1.53397 z"
         fill="#111111"
         id="path10"
         style="stroke-width:0.955612" />
      <path
         d="m 177.65012,386.45377 -9.12245,9.12255 -5.40568,-5.40595 9.12239,-9.12242 a 3.8225499,3.8225499 0 0 1 5.40574,0 3.8225499,3.8225499 0 0 1 0,5.40582 z"
         fill="#111111"
         id="path11"
         style="stroke-width:0.955612" />
      <path
         d="m 132.92309,260.02797 -12.74218,-2.01812 1.19603,-7.55106 12.74224,2.01814 a 3.8225499,3.8225499 0 0 1 3.17746,4.37352 3.8225499,3.8225499 0 0 1 -4.37355,3.17752 z"
         fill="#111111"
         id="path12"
         style="stroke-width:0.955612" />
      <path
         d="m 208.91324,149.53085 -5.85704,-11.49501 6.81188,-3.47077 5.85688,11.49488 a 3.8225499,3.8225499 0 0 1 -1.67049,5.14147 3.8225499,3.8225499 0 0 1 -5.14123,-1.67057 z"
         fill="#111111"
         id="path13"
         style="stroke-width:0.955612" />
      <path
         d="m 342.97291,146.05995 5.85701,-11.49488 6.81174,3.47077 -5.85688,11.49501 a 3.8225499,3.8225499 0 0 1 -5.14131,1.67057 3.8225499,3.8225499 0 0 1 -1.67056,-5.14147 z"
         fill="#111111"
         id="path14"
         style="stroke-width:0.955612" />
      <path
         d="m 424.57882,252.47693 12.74228,-2.01814 1.196,7.55106 -12.74233,2.01812 a 3.8225499,3.8225499 0 0 1 -4.37344,-3.17752 3.8225499,3.8225499 0 0 1 3.17749,-4.37352 z"
         fill="#111111"
         id="path15"
         style="stroke-width:0.955612" />
      <path
         d="m 386.4536,381.04795 9.12245,9.12242 -5.40591,5.40595 -9.12246,-9.12255 a 3.8225499,3.8225499 0 0 1 0,-5.40582 3.8225499,3.8225499 0 0 1 5.40592,0 z"
         fill="#111111"
         id="path16"
         style="stroke-width:0.955612" />
      <path
         d="m 165.9939,392.70421 a 160.30814,160.30814 0 1 1 226.70998,0"
         fill="none"
         stroke="#111111"
         stroke-width="0.477809"
         stroke-linecap="butt"
         id="path17" />
      <text
         x="202.57181"
         y="357.42819"
         font-family="'JetBrains Mono', monospace"
         font-size="40px"
         font-weight="900"
         fill="#111111"
         text-anchor="middle"
         dominant-baseline="middle"
         id="text17"
         style="fill:#000000;fill-opacity:1;stroke-width:1;stroke-dasharray:none">0%</text>
      <text
         x="171.84813"
         y="262.87042"
         font-family="'JetBrains Mono', monospace"
         font-size="40px"
         font-weight="900"
         fill="#111111"
         text-anchor="middle"
         dominant-baseline="middle"
         id="text18"
         style="fill:#ed0c0c;fill-opacity:1;stroke-width:1;stroke-dasharray:none">20%</text>
      <text
         x="230.28804"
         y="182.43478"
         font-family="'JetBrains Mono', monospace"
         font-size="40px"
         font-weight="900"
         fill="#111111"
         text-anchor="middle"
         dominant-baseline="middle"
         id="text19"
         style="fill:#e3940d;fill-opacity:1;stroke-width:1;stroke-dasharray:none">40%</text>
      <text
         x="329.71194"
         y="182.43478"
         font-family="'JetBrains Mono', monospace"
         font-size="40px"
         font-weight="900"
         fill="#111111"
         text-anchor="middle"
         dominant-baseline="middle"
         id="text20"
         style="fill:#d8db00;fill-opacity:1;stroke-width:1;stroke-dasharray:none">60%</text>
      <text
         x="388.15189"
         y="262.87042"
         font-family="'JetBrains Mono', monospace"
         font-size="40px"
         font-weight="900"
         fill="#111111"
         text-anchor="middle"
         dominant-baseline="middle"
         id="text21"
         style="fill:#a7cd1d;fill-opacity:1;stroke-width:1;stroke-dasharray:none">80%</text>
      <text
         x="357.42819"
         y="357.42819"
         font-family="'JetBrains Mono', monospace"
         font-size="40px"
         font-weight="900"
         fill="#111111"
         text-anchor="middle"
         dominant-baseline="middle"
         id="text22"
         style="fill:#25c922;fill-opacity:1;stroke-width:1;stroke-dasharray:none">100%</text>
    </g>
  </g>
</svg>
